<?xml version="1.0" encoding="UTF-8" standalone="no"?>
<svg
   viewBox="0 0 512 512"
   version="1.1"
   id="svg11"
   sodipodi:docname="education.svg"
   inkscape:version="1.1 (c68e22c387, 2021-05-23)"
   xmlns:inkscape="http://www.inkscape.org/namespaces/inkscape"
   xmlns:sodipodi="http://sodipodi.sourceforge.net/DTD/sodipodi-0.dtd"
   xmlns="http://www.w3.org/2000/svg"
   xmlns:svg="http://www.w3.org/2000/svg">
  <defs
     id="defs15" />
  <sodipodi:namedview
     id="namedview13"
     pagecolor="#ffffff"
     bordercolor="#666666"
     borderopacity="1.0"
     inkscape:pageshadow="2"
     inkscape:pageopacity="0.0"
     inkscape:pagecheckerboard="0"
     showgrid="false"
     inkscape:zoom="0.57452426"
     inkscape:cx="146.20793"
     inkscape:cy="446.45634"
     inkscape:window-width="1280"
     inkscape:window-height="961"
     inkscape:window-x="-8"
     inkscape:window-y="39"
     inkscape:window-maximized="1"
     inkscape:current-layer="svg11" />
  <path
     style="fill:#63e060;fill-opacity:1;stroke-width:3.72947"
     d="M 33.471955,283.07955 V 113.99876 h 28.956013 28.95605 v -13.37639 c 0,-15.055289 -4.142387,-13.046778 51.527132,-24.983934 35.21683,-7.551521 35.26253,-7.551333 71.4852,0.292124 l 36.24581,7.848345 36.24581,-7.848345 c 36.22267,-7.843358 36.26838,-7.843533 71.48521,-0.292124 55.66954,11.937156 51.52713,9.928645 51.52713,24.983934 v 13.37639 h 28.95605 28.95601 V 283.07955 452.16031 H 250.64216 33.471955 Z M 236.16413,404.67288 V 387.9275 l -29.09062,-6.19461 c -29.58622,-6.30012 -44.40798,-4.79692 -107.545604,10.90706 l -8.143888,2.02561 V 269.70312 144.74073 H 76.905993 62.427968 v 138.33882 138.33879 h 86.868092 86.86807 z M 438.85636,283.07955 V 144.74073 h -14.47803 -14.47802 v 124.96239 124.96244 l -8.14389,-2.02561 C 338.6188,376.93597 323.79704,375.43277 294.21082,381.73289 l -29.09063,6.19461 v 16.74538 16.74546 h 86.86808 86.86809 z m -286.17741,67.30087 c 22.62653,-5.0532 28.51978,-5.0532 51.1463,0 14.06524,3.1412 27.09545,5.71126 28.95603,5.71126 2.0267,0 3.38285,-49.07763 3.38285,-122.42091 v -122.4209 l -28.95601,-6.16595 c -26.57732,-5.659396 -31.33471,-5.659396 -57.91206,0 l -28.95601,6.16595 v 122.4209 c 0,73.34328 1.35615,122.42091 3.38285,122.42091 1.86061,0 14.89083,-2.57006 28.95605,-5.71126 z m 144.78012,0 c 22.62653,-5.0532 28.51981,-5.0532 51.14631,0 14.06523,3.1412 27.09544,5.71126 28.95601,5.71126 2.02671,0 3.3829,-49.07763 3.3829,-122.42091 v -122.4209 l -28.95602,-6.16595 c -26.57736,-5.659396 -31.33474,-5.659396 -57.91206,0 l -28.95602,6.16595 v 122.4209 c 0,73.34328 1.35616,122.42091 3.38286,122.42091 1.86058,0 14.89079,-2.57006 28.95602,-5.71126 z"
     id="path827" />
</svg>
