<?xml version="1.0" encoding="UTF-8" standalone="no"?>
<!-- Created with Inkscape (http://www.inkscape.org/) -->

<svg
   version="1.1"
   id="svg2"
   width="128"
   height="128"
   viewBox="0 0 128 128"
   sodipodi:docname="education.svg"
   inkscape:version="1.1 (c68e22c387, 2021-05-23)"
   xmlns:inkscape="http://www.inkscape.org/namespaces/inkscape"
   xmlns:sodipodi="http://sodipodi.sourceforge.net/DTD/sodipodi-0.dtd"
   xmlns="http://www.w3.org/2000/svg"
   xmlns:svg="http://www.w3.org/2000/svg">
  <defs
     id="defs6" />
  <sodipodi:namedview
     id="namedview4"
     pagecolor="#ffffff"
     bordercolor="#666666"
     borderopacity="1.0"
     inkscape:pageshadow="2"
     inkscape:pageopacity="0.0"
     inkscape:pagecheckerboard="0"
     showgrid="false"
     inkscape:lockguides="false"
     inkscape:zoom="3.25"
     inkscape:cx="44.307692"
     inkscape:cy="86.307692"
     inkscape:window-width="1920"
     inkscape:window-height="1017"
     inkscape:window-x="1272"
     inkscape:window-y="-8"
     inkscape:window-maximized="1"
     inkscape:current-layer="g8" />
  <g
     inkscape:groupmode="layer"
     inkscape:label="Image"
     id="g8">
    <path
       style="fill:#63e060;fill-opacity:1;stroke-width:1.072"
       d="M -7.9461539e-7,72.904256 V 25.50082 H 8.5333326 17.066666 v -3.750202 c 0,-4.220898 -1.220758,-3.657789 15.185033,-7.004489 10.378393,-2.11714 10.391862,-2.117088 21.066667,0.08187 L 64,17.028357 74.681634,14.827997 c 10.674805,-2.198954 10.688274,-2.199006 21.066667,-0.08187 16.405799,3.346702 15.185029,2.783593 15.185029,7.004491 V 25.50082 H 119.46667 128 V 72.904256 120.30769 H 64 -7.9461539e-7 Z M 59.733333,106.99413 v -4.69473 l -8.573002,-1.73672 c -8.719049,-1.766298 -13.087019,-1.344858 -31.693665,3.0579 l -2.4,0.5679 V 69.154054 34.119627 H 12.799999 8.5333326 v 38.784629 38.784624 h 25.6000004 25.6 z M 119.46667,72.904256 V 34.119627 H 115.2 110.93333 v 35.034427 35.034426 l -2.4,-0.5679 C 89.926688,99.217822 85.558718,98.796382 76.839669,100.56268 l -8.573002,1.73672 v 4.69473 4.69475 h 25.6 25.600003 z M 35.130266,91.772713 c 6.66803,-1.416717 8.404772,-1.416717 15.072802,0 4.145021,0.880669 7.985021,1.601209 8.533333,1.601209 0.597269,0 0.996932,-13.759387 0.996932,-34.321892 V 24.730136 L 51.2,23.001459 c -7.832334,-1.586671 -9.234333,-1.586671 -17.066667,0 l -8.533334,1.728677 V 59.05203 c 0,20.562505 0.399659,34.321892 0.996928,34.321892 0.54832,0 4.38832,-0.72054 8.533339,-1.601209 z m 42.666666,0 c 6.66803,-1.416717 8.404773,-1.416717 15.072802,0 4.145021,0.880669 7.985016,1.601209 8.533326,1.601209 0.59727,0 0.99694,-13.759387 0.99694,-34.321892 V 24.730136 l -8.533333,-1.728677 c -7.832334,-1.586671 -9.234333,-1.586671 -17.066667,0 l -8.533333,1.728677 V 59.05203 c 0,20.562505 0.399663,34.321892 0.996932,34.321892 0.548312,0 4.388312,-0.72054 8.533333,-1.601209 z"
       id="path827" />
  </g>
</svg>
