<?xml version="1.0" encoding="UTF-8" standalone="no"?>
<svg
   viewBox="0 0 512 512"
   version="1.1"
   id="svg11"
   sodipodi:docname="experiencia.svg"
   inkscape:version="1.1 (c68e22c387, 2021-05-23)"
   xmlns:inkscape="http://www.inkscape.org/namespaces/inkscape"
   xmlns:sodipodi="http://sodipodi.sourceforge.net/DTD/sodipodi-0.dtd"
   xmlns="http://www.w3.org/2000/svg"
   xmlns:svg="http://www.w3.org/2000/svg">
  <defs
     id="defs15" />
  <sodipodi:namedview
     id="namedview13"
     pagecolor="#ffffff"
     bordercolor="#666666"
     borderopacity="1.0"
     inkscape:pageshadow="2"
     inkscape:pageopacity="0.0"
     inkscape:pagecheckerboard="0"
     showgrid="false"
     inkscape:zoom="0.57452426"
     inkscape:cx="146.20793"
     inkscape:cy="446.45634"
     inkscape:window-width="1280"
     inkscape:window-height="961"
     inkscape:window-x="-8"
     inkscape:window-y="39"
     inkscape:window-maximized="1"
     inkscape:current-layer="svg11" />
  <path
     d="m 151.28626,178.28705 h -13.53869 v 13.31371 h 13.53869 z"
     fill="black"
     id="path2-9"
     style="fill:#63e060;fill-opacity:1;stroke-width:6.71287" />
  <path
     d="m 191.90232,178.28705 h -13.53868 v 13.31371 h 13.53868 z"
     fill="black"
     id="path4-3"
     style="fill:#63e060;fill-opacity:1;stroke-width:6.71287" />
  <path
     d="m 459.96835,288.05855 c 0.4813,-2.85978 0.32426,-5.78813 -0.46099,-8.58199 -0.78524,-2.79455 -2.17973,-5.38673 -4.08665,-7.59746 -1.90693,-2.21075 -4.27959,-3.98679 -6.95483,-5.20434 -2.67457,-1.21819 -5.58742,-1.8486 -8.53479,-1.8486 H 330.94466 c -6.40584,-0.0133 -12.60656,2.22072 -17.49334,6.29405 -4.88611,4.07333 -8.13947,9.72365 -9.17788,15.93982 L 292.224,358.0221 h -27.88969 l -19.56341,-52.922 c -2.2041,-5.86269 -5.57117,-11.23544 -9.90558,-15.80669 -4.33509,-4.57127 -9.55086,-8.24985 -15.34407,-10.8207 L 178.36364,260.4992 v -5.85803 c 11.86666,-4.1166 22.14388,-11.74868 29.41754,-21.8458 7.27365,-10.09778 11.18634,-22.16334 11.19852,-34.53776 V 111.7185 c 0,-1.76539 -0.71348,-3.45891 -1.98274,-4.70706 -1.26925,-1.24816 -2.99137,-1.94979 -4.7866,-1.94979 h -81.23213 c -8.97683,0 -17.58608,3.50683 -23.93301,9.74896 -6.34775,6.24147 -9.913716,14.70766 -9.913716,23.53531 v 26.96026 c -5.755224,0.7955 -11.00864,3.65461 -14.751208,8.02684 -3.742632,4.37288 -5.710553,9.95067 -5.52588,15.66291 0.1848,5.71292 2.508915,11.15622 6.526393,15.28613 4.01753,4.12991 9.444924,6.65486 15.239951,7.08956 3.49664,14.9726 12.64176,28.08194 25.58812,36.67926 v 12.11548 L 89.88831,272.48154 C 78.129349,276.66338 67.966604,284.30742 60.783646,294.37258 53.600698,304.43775 49.746642,316.4354 49.7461,328.73194 v 35.94702 c 0.02031,7.23067 2.471898,14.25232 6.97242,19.97056 h -0.203075 c -1.795368,0 -3.517147,0.70163 -4.786668,1.94979 -1.269459,1.24816 -1.982677,2.94167 -1.982677,4.70706 v 26.62742 c 0,1.7654 0.713218,3.4589 1.982677,4.70706 1.269521,1.24816 2.9913,1.9498 4.786668,1.9498 h 13.53869 v 19.97056 c 0,1.7654 0.713218,3.4589 1.982666,4.70706 1.269532,1.24816 2.991311,1.9498 4.786679,1.9498 h 352.00589 c 1.79523,0 3.51735,-0.70164 4.7866,-1.9498 1.26925,-1.24816 1.98275,-2.94166 1.98275,-4.70706 v -19.97056 h 13.53868 c 1.79523,0 3.51736,-0.70164 4.7866,-1.9498 1.26926,-1.24816 1.98274,-2.94166 1.98274,-4.70706 v -26.62742 c 0,-1.76539 -0.71348,-3.4589 -1.98274,-4.70706 -1.26924,-1.24816 -2.99137,-1.94979 -4.7866,-1.94979 h -5.88933 c 0.43527,-1.09106 0.73109,-2.23205 0.88001,-3.39499 z M 97.131504,197.65849 c -1.978541,-0.68165 -3.692804,-1.95112 -4.905673,-3.63264 -1.212858,-1.68152 -1.864342,-3.69189 -1.864342,-5.75352 0,-2.06163 0.651207,-4.072 1.864342,-5.75352 1.212869,-1.68152 2.927132,-2.95099 4.905673,-3.63264 z m 220.477536,91.5983 c 0.5138,-3.11075 2.13911,-5.93858 4.58353,-7.97624 2.44441,-2.03764 5.54747,-3.15133 8.75209,-3.14068 h 1.89541 l -18.07415,106.50965 h -13.33561 z m -27.61892,82.07902 -2.30157,13.31371 h -48.40081 c -1.79523,0 -3.51735,-0.70163 -4.78661,-1.9498 -1.26925,-1.24816 -1.98274,-2.94166 -1.98274,-4.70705 v -6.65686 z M 110.67019,138.34592 c 0.0135,-5.29154 2.16078,-10.36206 5.96583,-14.10388 3.80505,-3.74182 8.96126,-5.85071 14.34221,-5.86668 h 74.46278 v 21.3685 c -3.99391,0.59911 -7.64935,1.33137 -11.16941,1.99705 -9.66934,2.11489 -19.54107,3.20794 -29.44665,3.26186 -6.12626,0.33417 -12.25116,-0.66635 -17.93877,-2.92901 -7.21273,-2.78257 -14.93655,-4.05269 -22.6773,-3.72784 -1.79523,0 -3.51735,0.70163 -4.7866,1.9498 -1.26925,1.24815 -1.98274,2.94166 -1.98274,4.70705 v 13.31371 c 0,1.7654 -0.71349,3.4589 -1.98274,4.70706 -1.26925,1.24816 -2.99138,1.9498 -4.78661,1.9498 z m 0,59.91169 v -19.97056 c 5.38096,-0.0133 10.53717,-2.12487 14.34221,-5.86669 3.80505,-3.74182 5.94958,-8.81234 5.96583,-14.10388 v -6.39058 c 3.84567,0.28225 7.61889,1.18226 11.16941,2.66275 7.21274,2.78256 14.93656,4.05269 22.67731,3.72783 10.77003,-0.0533 21.50417,-1.23418 32.019,-3.52813 2.77543,-0.53255 5.61855,-1.0651 8.59706,-1.59765 v 45.06691 c 0,12.35845 -4.99239,24.21099 -13.87918,32.94943 -8.88612,8.73912 -20.93894,13.64855 -33.50622,13.64855 -12.56729,0 -24.62011,-4.90943 -33.50622,-13.64855 -8.88681,-8.73844 -13.8792,-20.59098 -13.8792,-32.94943 z m 54.15476,59.51229 v 7.05626 c 0,3.53079 -1.42631,6.91714 -3.96548,9.41413 -2.53918,2.49698 -5.98275,3.89958 -9.57321,3.89958 -3.59046,0 -7.03402,-1.4026 -9.57321,-3.89958 -2.53918,-2.49699 -3.96548,-5.88334 -3.96548,-9.41413 v -10.18499 c 6.50941,2.32724 13.38164,3.52147 20.30804,3.52813 2.26231,10e-4 4.52327,-0.13181 6.76934,-0.3994 z M 63.28479,328.73194 c 0.0011,-9.55992 2.997733,-18.88749 8.581562,-26.71263 5.58383,-7.8258 13.483855,-13.7697 22.625113,-17.02291 l 31.409755,-11.25005 c 1.83449,5.12977 5.23,9.58051 9.72552,12.74718 4.49552,3.16733 9.87241,4.89678 15.40228,4.95536 5.52921,0.0599 10.94333,-1.55837 15.50654,-4.63051 4.56321,-3.07147 8.05416,-7.44966 10.00035,-12.53948 l 37.43448,16.37583 c 4.15841,1.81732 7.90185,4.44013 11.00695,7.71063 3.1051,3.27118 5.5089,7.12351 7.06719,11.32797 l 17.87107,48.32877 h -23.62501 l -14.55408,-35.74731 c -0.53073,-1.24549 -1.42495,-2.3086 -2.56965,-3.05483 -1.14401,-0.74624 -2.48773,-1.14299 -3.86124,-1.13899 -1.79522,0 -3.51734,0.70164 -4.7866,1.94979 -1.26925,1.24816 -1.98274,2.94167 -1.98274,4.70707 v 59.91169 H 171.5943 c -0.0203,-5.85338 -1.61246,-11.59824 -4.62076,-16.64946 -3.00762,-5.05122 -7.32308,-9.22907 -12.50569,-12.10815 l -3.24929,-25.29605 -13.4033,1.59765 2.43697,19.43801 c -0.81233,-0.0666 -1.62465,-0.26627 -2.50466,-0.26627 H 97.131504 V 318.08097 H 83.592825 v 39.94113 c 0,1.7654 0.713218,3.4589 1.982665,4.70706 1.269522,1.24816 2.991312,1.9498 4.786679,1.9498 h 33.846711 v 19.97056 H 83.592825 c -5.381095,-0.0133 -10.537162,-2.12487 -14.342209,-5.86669 -3.804983,-3.74182 -5.949784,-8.81234 -5.965826,-14.10387 z m 156.91339,55.91758 h -8.12321 v -25.69546 l 6.90473,16.97498 v 2.06363 c 0.0203,2.27064 0.43053,4.52199 1.21848,6.65685 z m -62.14257,0 h -20.30804 v -19.97056 c 5.38095,0.0133 10.53716,2.12486 14.34221,5.86668 3.80505,3.74182 5.94958,8.81234 5.96583,14.10388 z m 264.00442,53.25484 H 83.592825 V 424.59065 H 422.06003 Z m 20.30802,-26.62742 H 63.28479 v -13.31371 h 379.08326 z m -11.57557,-32.21918 c -0.24167,1.55904 -1.04384,2.98094 -2.26164,4.00676 -1.21713,1.02649 -2.76866,1.58833 -4.37232,1.585 h -95.65083 l 18.07415,-106.50965 h 93.34925 c 0.98224,-0.003 1.95364,0.20436 2.84583,0.60777 0.89221,0.40341 1.68489,0.9932 2.32257,1.72743 0.63767,0.73492 1.10543,1.59698 1.37011,2.5276 0.26468,0.92997 0.3202,1.90586 0.16314,2.85913 z"
     fill="black"
     id="path6-8"
     style="fill:#63e060;fill-opacity:1;stroke-width:6.71287" />
  <path
     d="m 388.2133,311.42412 c -4.01625,0 -7.94314,1.17094 -11.28246,3.3657 -3.33999,2.19411 -5.94281,5.31351 -7.47945,8.96279 -1.53732,3.64862 -1.93942,7.66404 -1.15621,11.53832 0.7839,3.87363 2.7179,7.43238 5.55831,10.22494 2.83974,2.79322 6.45864,4.69507 10.39771,5.46594 3.93977,0.7702 8.02303,0.37478 11.73331,-1.13699 3.71095,-1.5111 6.88307,-4.07067 9.11424,-7.35516 2.23186,-3.28383 3.42259,-7.14547 3.42259,-11.09498 0,-5.2962 -2.1398,-10.37604 -5.94822,-14.12118 -3.80844,-3.74515 -8.97345,-5.84938 -14.35982,-5.84938 z m 0,26.62742 c -1.33897,0 -2.64749,-0.39009 -3.76104,-1.12168 -1.11289,-0.73159 -1.98071,-1.7714 -2.49315,-2.98761 -0.51244,-1.2162 -0.64648,-2.55489 -0.38518,-3.84632 0.26129,-1.29143 0.90574,-2.47769 1.85277,-3.40832 0.94636,-0.93129 2.15266,-1.56502 3.4659,-1.82198 1.31326,-0.25695 2.67457,-0.12514 3.91133,0.37878 1.23676,0.50393 2.29413,1.35734 3.03809,2.45172 0.74394,1.09505 1.14063,2.38182 1.14063,3.69855 0,1.7654 -0.71349,3.4589 -1.98274,4.70706 -1.26926,1.24816 -2.99138,1.9498 -4.78661,1.9498 z"
     fill="black"
     id="path8-1"
     style="fill:#63e060;fill-opacity:1;stroke-width:6.71287" />
  <path
     d="m 354.36658,224.88503 c 14.72739,0 29.12376,-4.29433 41.36949,-12.34048 12.24507,-8.04614 21.78917,-19.48261 27.42533,-32.86289 5.63547,-13.38028 7.11052,-28.10324 4.23693,-42.30764 -2.87291,-14.20439 -9.96447,-27.25183 -20.37843,-37.492545 -10.41396,-10.240774 -23.68188,-17.214824 -38.1263,-20.040193 -14.44443,-2.825436 -29.41619,-1.375306 -43.02257,4.166925 -13.60639,5.542227 -25.23611,14.927732 -33.41822,26.969393 -8.1821,12.04225 -12.54901,26.19938 -12.54901,40.68203 0.0203,19.41338 7.87613,38.02529 21.8352,51.75305 13.95974,13.7271 32.88615,21.44971 52.62758,21.47235 z m -60.52471,-79.88226 c 1.2767,-11.23411 5.77494,-21.87908 12.97007,-30.69476 l 9.26046,9.10659 9.57186,-9.4128 -9.26046,-9.10651 c 8.96464,-7.075442 19.78949,-11.498917 31.21344,-12.754536 v 12.920896 h 13.53868 V 92.140754 c 11.42396,1.255619 22.24881,5.679094 31.21345,12.754536 l -9.26046,9.10651 9.57186,9.4128 9.26046,-9.10659 c 7.19513,8.81568 11.69336,19.46065 12.97006,30.69476 h -13.1393 v 13.31371 h 13.1393 c -1.2767,11.23411 -5.77493,21.87908 -12.97006,30.69477 l -9.26046,-9.10659 -9.57186,9.41279 9.26046,9.10658 c -8.96464,7.07558 -19.78949,11.49905 -31.21345,12.75453 v -12.92095 h -13.53868 v 12.92095 c -11.42395,-1.25548 -22.2488,-5.67895 -31.21344,-12.75453 l 9.26046,-9.10658 -9.57186,-9.41279 -9.26046,9.10659 c -7.19513,-8.81569 -11.69337,-19.46066 -12.97007,-30.69477 h 13.1393 v -13.31371 z"
     fill="black"
     id="path10"
     style="fill:#63e060;fill-opacity:1;stroke-width:6.71287" />
  <path
     d="m 359.15251,156.36603 c 1.26925,-1.24817 1.98274,-2.941 1.98341,-4.7064 v -33.28427 h -13.53868 v 30.52833 l -11.55528,11.36325 9.57186,9.4128 z"
     fill="black"
     id="path12"
     style="fill:#63e060;fill-opacity:1;stroke-width:6.71287" />
  <path
     d="m 354.36658,251.51245 c 20.08261,0 39.71439,-5.85604 56.41301,-16.82853 16.69794,-10.97183 29.71268,-26.56684 37.39792,-44.81194 7.68523,-18.24578 9.69641,-38.32286 5.77831,-57.69231 -3.9181,-19.37011 -13.58878,-37.161956 -27.78951,-51.126641 -14.20073,-13.964616 -32.29315,-23.474665 -51.98992,-27.32752 -19.69743,-3.852854 -40.11377,-1.875435 -58.66719,5.682159 -18.5541,7.557659 -34.41264,20.356062 -45.56988,36.776723 -11.1579,16.420809 -17.11289,35.726349 -17.11289,55.475239 0.0338,26.47365 10.7382,51.85424 29.77428,70.57331 19.03539,18.71974 44.84487,29.24955 71.76587,29.27951 z m 0,-186.39187 c 17.40534,0 34.41941,5.075386 48.89091,14.584436 14.47219,9.509054 25.75126,23.024604 32.41163,38.837434 6.66103,15.81335 8.40346,33.21303 5.00795,50.00029 -3.39549,16.7866 -11.77663,32.20653 -24.08397,44.30936 -12.30735,12.10283 -27.98785,20.34468 -45.0581,23.68376 -17.07093,3.33908 -34.76465,1.6256 -50.84523,-4.92475 -16.07989,-6.54967 -29.8237,-17.64133 -39.4937,-31.87301 -9.67001,-14.23103 -14.83096,-30.96237 -14.83096,-48.07847 0.0271,-22.94352 9.30717,-44.93976 25.80474,-61.163188 16.49756,-16.223485 38.86551,-25.349434 62.19673,-25.375862 z"
     fill="black"
     id="path14"
     style="fill:#63e060;fill-opacity:1;stroke-width:6.71287" />
</svg>
